<?xml version="1.0" standalone="no"?>
<!DOCTYPE svg PUBLIC "-//W3C//DTD SVG 20010904//EN"
 "http://www.w3.org/TR/2001/REC-SVG-20010904/DTD/svg10.dtd">
<svg version="1.0" xmlns="http://www.w3.org/2000/svg"
 width="1249.000000pt" height="1249.000000pt" viewBox="0 0 1249.000000 1249.000000"
 preserveAspectRatio="xMidYMid meet">
<metadata>
Created by potrace 1.14, written by Peter Selinger 2001-2017
</metadata>
<g transform="translate(0.000000,1249.000000) scale(0.100000,-0.100000)"
fill="#000000" stroke="none">
<path d="M7550 8975 c-287 -65 -484 -270 -566 -592 -75 -296 -46 -641 75 -888
135 -274 349 -410 646 -408 103 0 132 4 200 27 250 84 422 276 506 567 76 265
56 595 -52 855 -90 217 -266 374 -478 429 -91 23 -251 28 -331 10z m259 -364
c108 -56 153 -227 153 -588 -1 -347 -48 -499 -174 -564 -44 -22 -124 -25 -171
-6 -46 20 -101 85 -125 148 -42 114 -47 162 -47 464 0 290 0 290 28 372 32 95
88 165 152 189 51 18 130 12 184 -15z"/>
<path d="M3045 8963 c-112 -16 -262 -79 -331 -139 -22 -18 -42 -34 -46 -34 -3
0 -31 -30 -62 -66 -173 -209 -251 -520 -217 -864 34 -345 175 -578 415 -686
l65 -29 1 -477 c0 -468 0 -478 -20 -478 -80 0 -212 -96 -265 -192 -25 -46 -30
-66 -33 -148 -5 -130 18 -192 102 -275 49 -48 75 -65 128 -84 179 -62 370 13
450 177 31 62 33 73 33 167 -1 89 -4 106 -28 152 -53 102 -138 172 -235 194
l-52 12 0 468 0 467 38 -11 c65 -20 333 -13 442 11 187 41 337 107 373 163 12
19 -89 276 -115 292 -12 8 -42 0 -120 -31 -157 -63 -217 -76 -343 -75 -90 0
-121 4 -169 23 -78 30 -146 94 -180 169 -27 61 -54 207 -43 235 6 15 55 16
504 16 468 -1 498 0 511 17 18 23 10 292 -12 408 -66 351 -245 561 -523 610
-74 14 -201 17 -268 8z m214 -356 c82 -54 126 -164 119 -297 l-3 -65 -260 -2
c-143 -1 -266 1 -272 5 -9 6 -10 25 -3 77 23 167 93 268 210 306 14 5 57 7 96
6 58 -2 78 -7 113 -30z"/>
<path d="M4707 8950 c-64 -20 -92 -36 -147 -86 l-37 -34 -7 42 c-12 76 -18 78
-195 78 -126 0 -161 -3 -179 -16 l-22 -15 0 -894 c0 -799 2 -895 16 -909 13
-13 45 -16 193 -16 124 0 181 4 189 12 9 9 12 90 12 305 0 161 2 293 5 293 3
0 28 -18 56 -40 122 -96 334 -106 479 -23 137 78 238 245 270 445 19 117 8
382 -20 478 -45 156 -136 282 -247 343 -104 56 -258 72 -366 37z m99 -316 c92
-44 128 -142 128 -349 1 -211 -34 -311 -125 -357 -97 -50 -257 11 -274 105 -4
18 -5 145 -3 281 l3 248 39 34 c22 19 54 38 70 43 50 15 126 12 162 -5z"/>
<path d="M9391 8954 c-70 -19 -147 -63 -192 -111 -43 -46 -95 -124 -111 -170
-7 -18 -16 -33 -20 -33 -4 0 -8 58 -8 128 0 112 -2 131 -18 145 -27 25 -372
25 -396 1 -14 -14 -16 -109 -16 -899 l0 -884 22 -15 c18 -13 56 -16 204 -16
164 0 184 2 205 19 l24 19 5 574 c5 561 6 574 28 640 43 129 118 194 222 192
69 0 112 -23 146 -74 54 -82 54 -69 54 -1217 0 -1050 0 -1063 -20 -1063 -10 0
-44 -9 -75 -21 -77 -29 -154 -102 -194 -184 -29 -59 -33 -77 -33 -148 0 -148
68 -264 196 -330 57 -29 68 -32 161 -32 88 0 107 3 157 27 73 34 142 103 176
176 24 50 27 70 27 157 0 95 -2 103 -34 163 -52 96 -148 169 -248 190 l-38 8
0 449 0 450 178 5 c164 5 180 7 193 25 13 17 15 115 11 715 -4 752 -5 764 -61
885 -34 75 -117 160 -189 194 -110 52 -245 65 -356 35z"/>
<path d="M10822 8960 c-188 -34 -357 -148 -465 -313 -127 -194 -174 -392 -164
-692 14 -465 190 -731 547 -826 72 -19 110 -23 240 -23 180 1 308 23 455 79
109 42 163 77 171 111 6 25 -34 140 -84 243 -28 57 -40 59 -136 17 -135 -58
-224 -78 -351 -79 -128 -1 -199 20 -269 76 -74 61 -126 189 -126 310 0 57 0
58 28 56 88 -7 969 3 982 11 22 14 25 164 6 314 -52 399 -212 628 -491 701
-72 19 -270 28 -343 15z m214 -339 c52 -24 92 -64 115 -115 23 -53 41 -159 37
-216 l-3 -45 -272 -3 -273 -4 0 39 c0 90 49 224 102 284 64 72 205 101 294 60z"/>
<path d="M5507 8912 c-23 -25 -25 -297 -3 -328 14 -18 32 -19 316 -24 l302 -5
-19 -25 c-11 -14 -45 -61 -75 -106 -31 -45 -98 -141 -149 -215 -51 -74 -105
-152 -120 -174 -16 -22 -50 -71 -78 -110 -27 -38 -94 -134 -148 -213 l-98
-143 -3 -196 c-3 -173 -2 -197 14 -214 23 -26 40 -24 110 10 188 90 422 131
639 111 136 -13 251 -41 375 -92 126 -53 132 -54 155 -28 17 19 20 39 23 159
4 177 -4 205 -77 248 -116 70 -337 123 -507 123 -52 0 -94 4 -94 9 0 5 24 42
53 82 29 41 79 112 111 159 93 133 123 176 163 233 59 83 243 348 277 397 30
44 31 48 34 183 3 120 1 141 -14 158 -16 18 -38 19 -594 19 -546 0 -578 -1
-593 -18z"/>
<path d="M450 8075 l0 -845 245 0 245 0 0 399 c0 220 3 402 8 404 4 3 164
-177 357 -399 l349 -404 238 0 238 0 0 845 0 845 -250 0 -250 0 -2 -412 -3
-412 -234 275 c-129 151 -287 336 -350 411 l-116 137 -237 0 -238 1 0 -845z"/>
</g>
</svg>
